<svg viewBox="0 0 20 20" fill="none" xmlns="http://www.w3.org/2000/svg">
<path fill-rule="evenodd" clip-rule="evenodd" d="M9.99999 2.56599L8.15599 4.47391C7.95972 4.67698 7.68941 4.79166 7.40698 4.79166H4.79166V7.40698C4.79166 7.6894 4.67698 7.95972 4.47391 8.15599L2.56599 9.99999L4.47391 11.844C4.67698 12.0403 4.79166 12.3106 4.79166 12.593V15.2083H7.40698C7.6894 15.2083 7.95972 15.323 8.15599 15.5261L9.99999 17.434L11.844 15.5261C12.0403 15.323 12.3106 15.2083 12.593 15.2083H15.2083V12.593C15.2083 12.3106 15.323 12.0403 15.5261 11.844L17.434 9.99999L15.5261 8.156C15.323 7.95973 15.2083 7.68941 15.2083 7.40699V4.79166H12.593C12.3106 4.79166 12.0403 4.67698 11.844 4.47391L9.99999 2.56599ZM9.25098 1.5423C9.66046 1.11863 10.3395 1.11863 10.749 1.5423L12.6814 3.54166H15.4167C15.992 3.54166 16.4583 4.00803 16.4583 4.58333V7.31861L18.4577 9.25098C18.8814 9.66046 18.8814 10.3395 18.4577 10.749L16.4583 12.6814V15.4167C16.4583 15.992 15.992 16.4583 15.4167 16.4583H12.6814L10.749 18.4577C10.3395 18.8814 9.66046 18.8814 9.25098 18.4577L7.3186 16.4583H4.58333C4.00803 16.4583 3.54166 15.992 3.54166 15.4167V12.6814L1.5423 10.749C1.11863 10.3395 1.11863 9.66046 1.5423 9.25098L3.54166 7.3186V4.58333C3.54166 4.00803 4.00803 3.54166 4.58333 3.54166H7.3186L9.25098 1.5423Z" fill="white"/>
<path fill-rule="evenodd" clip-rule="evenodd" d="M6.04166 9.99999C6.04166 7.81387 7.81387 6.04166 9.99999 6.04166C12.1861 6.04166 13.9583 7.81387 13.9583 9.99999C13.9583 12.1861 12.1861 13.9583 9.99999 13.9583C7.81387 13.9583 6.04166 12.1861 6.04166 9.99999ZM9.99999 7.29166C8.50422 7.29166 7.29166 8.50422 7.29166 9.99999C7.29166 11.4958 8.50422 12.7083 9.99999 12.7083C11.4958 12.7083 12.7083 11.4958 12.7083 9.99999C12.7083 8.50422 11.4958 7.29166 9.99999 7.29166Z" fill="white"/>
</svg>
