<svg width="47" height="47" viewBox="0 0 47 47" fill="none" xmlns="http://www.w3.org/2000/svg">
<path fill-rule="evenodd" clip-rule="evenodd" d="M16.136 9.54868C16.024 8.88082 15.4699 8.37613 14.7945 8.32682C14.1191 8.2775 13.4975 8.69635 13.2897 9.34084L9.19686 22.0312H3.91667C3.1055 22.0312 2.44792 22.6888 2.44792 23.5C2.44792 24.3112 3.1055 24.9687 3.91667 24.9687H10.2664C10.9039 24.9687 11.4686 24.5575 11.6643 23.9508L14.2359 15.9772L17.8381 37.4513C17.9516 38.1281 18.5187 38.6361 19.2038 38.6747C19.889 38.7134 20.5096 38.2725 20.6986 37.6129L25.4564 21.0062L27.9628 29.7785C28.1243 30.3438 28.6074 30.7584 29.1907 30.8321C29.774 30.9059 30.3451 30.6247 30.6423 30.1174L33.6587 24.9687H35.9423C36.5816 27.2292 38.6599 28.8854 41.125 28.8854C44.0993 28.8854 46.5104 26.4743 46.5104 23.5C46.5104 20.5257 44.0993 18.1146 41.125 18.1146C38.6599 18.1146 36.5816 19.7708 35.9423 22.0312H32.8169C32.2955 22.0312 31.8132 22.3077 31.5496 22.7576L29.8438 25.6693L26.8706 15.2632C26.6905 14.6328 26.1144 14.1982 25.4589 14.1979C24.8033 14.1977 24.227 14.6319 24.0464 15.2621L19.6617 30.5664L16.136 9.54868ZM38.6771 23.5C38.6771 22.1481 39.7731 21.0521 41.125 21.0521C42.477 21.0521 43.5729 22.1481 43.5729 23.5C43.5729 24.8519 42.477 25.9479 41.125 25.9479C39.7731 25.9479 38.6771 24.8519 38.6771 23.5Z" fill="black"/>
</svg>
